<svg width="22" height="22" viewBox="0 0 22 22" fill="none" xmlns="http://www.w3.org/2000/svg">
<g clip-path="url(#clip0_261_5261)">
<path d="M4.29821 10.2958C4.35847 10.2957 4.41873 10.2954 4.479 10.2951C4.6436 10.2945 4.8082 10.2947 4.97281 10.295C5.15072 10.2952 5.32863 10.2947 5.50655 10.2943C5.85471 10.2935 6.20287 10.2935 6.55103 10.2937C6.83412 10.2939 7.1172 10.2938 7.40029 10.2936C7.4608 10.2935 7.4608 10.2935 7.52253 10.2935C7.60449 10.2934 7.68644 10.2934 7.7684 10.2933C8.53644 10.2927 9.30448 10.2929 10.0725 10.2934C10.7746 10.2939 11.4766 10.2933 12.1787 10.2923C12.9002 10.2912 13.6218 10.2908 14.3433 10.2911C14.7481 10.2912 15.153 10.2911 15.5578 10.2904C15.9024 10.2898 16.247 10.2897 16.5916 10.2905C16.7673 10.2908 16.943 10.2909 17.1187 10.2903C17.2798 10.2897 17.4409 10.2899 17.602 10.2907C17.6872 10.291 17.7725 10.2904 17.8578 10.2897C18.4865 10.2949 18.953 10.5024 19.4112 10.9275C19.8637 11.4056 19.9572 11.9325 19.9549 12.5697C19.9552 12.6316 19.9555 12.6934 19.9558 12.7553C19.9566 12.9222 19.9565 13.0891 19.9563 13.256C19.9562 13.3959 19.9564 13.5358 19.9567 13.6757C19.9573 14.0059 19.9572 14.3362 19.9567 14.6664C19.9562 15.0059 19.9568 15.3454 19.958 15.685C19.9589 15.9776 19.9592 16.2702 19.959 16.5628C19.9588 16.737 19.9589 16.9113 19.9597 17.0856C19.9603 17.2496 19.9602 17.4136 19.9594 17.5776C19.9592 17.6374 19.9593 17.6972 19.9598 17.757C19.9645 18.4283 19.7793 18.9189 19.3226 19.4111C18.986 19.7297 18.5488 19.9528 18.0785 19.9416C17.9966 19.9369 17.9148 19.9315 17.8331 19.9254C17.7394 19.92 17.6458 19.9146 17.5521 19.9093C17.5029 19.9063 17.4538 19.9033 17.4031 19.9003C14.8377 19.6244 14.8377 19.6244 12.5382 20.4738C12.1159 20.8563 11.7678 21.3358 11.4906 21.8306C11.4208 21.9264 11.368 21.9588 11.2579 22C11.1374 22.0144 11.1374 22.0144 11.0054 22.0161C10.9621 22.0173 10.9188 22.0186 10.8742 22.0198C10.7102 21.9952 10.6043 21.9395 10.4844 21.8281C10.4169 21.731 10.3587 21.6306 10.2997 21.5281C9.91353 20.8776 9.37831 20.2245 8.63678 19.9805C7.31178 19.6781 5.80521 19.8355 4.45995 19.9164C3.71429 19.9586 3.25264 19.8885 2.66564 19.3937C2.31697 19.0702 2.0919 18.6409 2.05041 18.1654C2.04556 18.0037 2.04462 17.8421 2.0452 17.6803C2.04496 17.6184 2.04466 17.5566 2.04431 17.4947C2.04354 17.3278 2.04359 17.1609 2.04383 16.994C2.04397 16.8541 2.0437 16.7142 2.04344 16.5744C2.04284 16.2441 2.04291 15.9138 2.0434 15.5836C2.04389 15.2441 2.04328 14.9046 2.04213 14.565C2.04118 14.2724 2.0409 13.9798 2.04115 13.6872C2.04129 13.513 2.04119 13.3387 2.04045 13.1644C2.03978 13.0004 2.03996 12.8364 2.04076 12.6724C2.04092 12.6126 2.04079 12.5528 2.04034 12.4931C2.03564 11.8217 2.22084 11.3311 2.67755 10.8389C3.14894 10.3927 3.66879 10.2929 4.29821 10.2958ZM4.98444 13.323C4.83718 13.5393 4.82727 13.7061 4.85553 13.9648C4.95642 14.1744 5.08273 14.283 5.28522 14.3945C5.42437 14.4291 5.55412 14.4429 5.69721 14.4432C5.73572 14.4433 5.77422 14.4435 5.8139 14.4437C5.87676 14.4436 5.87676 14.4436 5.9409 14.4435C6.00814 14.4437 6.00814 14.4437 6.07675 14.4439C6.22719 14.4443 6.37764 14.4444 6.52808 14.4444C6.63586 14.4446 6.74364 14.4448 6.85141 14.4451C7.14439 14.4456 7.43736 14.4459 7.73033 14.4461C7.91335 14.4462 8.09637 14.4464 8.27939 14.4466C8.78637 14.4471 9.29336 14.4476 9.80034 14.4477C9.84899 14.4477 9.84898 14.4477 9.89861 14.4477C9.94738 14.4478 9.94738 14.4478 9.99712 14.4478C10.063 14.4478 10.1289 14.4478 10.1947 14.4478C10.2274 14.4478 10.2601 14.4478 10.2937 14.4479C10.8231 14.448 11.3524 14.4488 11.8817 14.4498C12.4255 14.4508 12.9693 14.4513 13.5131 14.4514C13.8182 14.4514 14.1234 14.4517 14.4286 14.4524C14.7157 14.4532 15.0028 14.4532 15.2898 14.4529C15.3951 14.4528 15.5004 14.453 15.6057 14.4534C15.7496 14.454 15.8935 14.4537 16.0374 14.4533C16.0997 14.4538 16.0997 14.4538 16.1632 14.4543C16.4357 14.4524 16.7438 14.4363 16.9566 14.2462C17.1308 14.0421 17.1599 13.9049 17.1565 13.6443C17.1388 13.4825 17.0809 13.3969 16.9727 13.2773C16.755 13.106 16.5754 13.0573 16.3029 13.0569C16.2644 13.0567 16.2259 13.0565 16.1862 13.0564C16.1234 13.0564 16.1234 13.0564 16.0592 13.0565C15.992 13.0563 15.992 13.0563 15.9234 13.0561C15.7729 13.0557 15.6225 13.0556 15.472 13.0556C15.3643 13.0554 15.2565 13.0552 15.1487 13.0549C14.8557 13.0544 14.5628 13.0541 14.2698 13.0539C14.0868 13.0538 13.9038 13.0536 13.7207 13.0534C13.2138 13.0529 12.7068 13.0524 12.1998 13.0523C12.1511 13.0523 12.1511 13.0523 12.1015 13.0523C12.069 13.0523 12.0365 13.0523 12.003 13.0522C11.9371 13.0522 11.8713 13.0522 11.8054 13.0522C11.7727 13.0522 11.74 13.0522 11.7064 13.0522C11.1771 13.052 10.6477 13.0512 10.1184 13.0502C9.57463 13.0492 9.03085 13.0487 8.48707 13.0486C8.18189 13.0486 7.87672 13.0483 7.57154 13.0476C7.28445 13.0468 6.99738 13.0468 6.71029 13.0471C6.60499 13.0472 6.4997 13.047 6.3944 13.0466C6.2505 13.046 6.10662 13.0463 5.96272 13.0467C5.90043 13.0462 5.90043 13.0462 5.83688 13.0457C5.52553 13.0479 5.19801 13.0727 4.98444 13.323ZM4.98444 16.073C4.83718 16.2893 4.82727 16.4561 4.85553 16.7148C4.95642 16.9244 5.08273 17.033 5.28522 17.1445C5.42437 17.1791 5.55412 17.1929 5.69721 17.1932C5.73572 17.1933 5.77422 17.1935 5.8139 17.1937C5.87676 17.1936 5.87676 17.1936 5.9409 17.1935C6.00814 17.1937 6.00814 17.1937 6.07675 17.1939C6.22719 17.1943 6.37764 17.1944 6.52808 17.1944C6.63586 17.1946 6.74364 17.1948 6.85141 17.1951C7.14439 17.1956 7.43736 17.1959 7.73033 17.1961C7.91335 17.1962 8.09637 17.1964 8.27939 17.1966C8.78637 17.1971 9.29336 17.1976 9.80034 17.1977C9.84899 17.1977 9.84898 17.1977 9.89861 17.1977C9.94738 17.1978 9.94738 17.1978 9.99712 17.1978C10.063 17.1978 10.1289 17.1978 10.1947 17.1978C10.2274 17.1978 10.2601 17.1978 10.2937 17.1979C10.8231 17.198 11.3524 17.1988 11.8817 17.1998C12.4255 17.2008 12.9693 17.2013 13.5131 17.2014C13.8182 17.2014 14.1234 17.2017 14.4286 17.2024C14.7157 17.2032 15.0028 17.2032 15.2898 17.2029C15.3951 17.2028 15.5004 17.203 15.6057 17.2034C15.7496 17.204 15.8935 17.2037 16.0374 17.2033C16.0997 17.2038 16.0997 17.2038 16.1632 17.2043C16.4357 17.2024 16.7438 17.1863 16.9566 16.9962C17.1308 16.7921 17.1599 16.6549 17.1565 16.3943C17.1388 16.2325 17.0809 16.1469 16.9727 16.0273C16.755 15.856 16.5754 15.8073 16.3029 15.8069C16.2644 15.8067 16.2259 15.8065 16.1862 15.8064C16.1234 15.8064 16.1234 15.8064 16.0592 15.8065C15.992 15.8063 15.992 15.8063 15.9234 15.8061C15.7729 15.8057 15.6225 15.8056 15.472 15.8056C15.3643 15.8054 15.2565 15.8052 15.1487 15.8049C14.8557 15.8044 14.5628 15.8041 14.2698 15.8039C14.0868 15.8038 13.9038 15.8036 13.7207 15.8034C13.2138 15.8029 12.7068 15.8024 12.1998 15.8023C12.1511 15.8023 12.1511 15.8023 12.1015 15.8023C12.069 15.8023 12.0365 15.8022 12.003 15.8022C11.9371 15.8022 11.8713 15.8022 11.8054 15.8022C11.7727 15.8022 11.74 15.8022 11.7064 15.8022C11.1771 15.802 10.6477 15.8012 10.1184 15.8002C9.57463 15.7992 9.03085 15.7987 8.48707 15.7986C8.18189 15.7986 7.87672 15.7983 7.57154 15.7976C7.28445 15.7968 6.99738 15.7968 6.71029 15.7971C6.60499 15.7972 6.4997 15.797 6.3944 15.7966C6.2505 15.796 6.10662 15.7963 5.96272 15.7967C5.90043 15.7962 5.90043 15.7962 5.83688 15.7957C5.52553 15.7979 5.19801 15.8227 4.98444 16.073Z" fill="#7246A7"/>
<path d="M4.08318 2.04621C4.34999 2.17729 4.47304 2.4262 4.56915 2.69591C4.57904 2.7255 4.58892 2.75509 4.59911 2.78558C4.82762 3.51728 4.82762 3.51728 5.33836 4.04728C5.77225 4.21033 6.26027 4.23288 6.72004 4.23728C7.00455 4.24157 7.20269 4.29655 7.42568 4.48486C7.55702 4.64246 7.59873 4.75166 7.62173 4.95483C7.57775 5.38727 7.26683 5.64612 6.97182 5.93237C6.92994 5.97376 6.88809 6.01519 6.84627 6.05666C6.66546 6.23485 6.48642 6.40471 6.28365 6.55793C6.17392 6.65244 6.17392 6.65244 6.12943 6.78489C6.13917 6.89017 6.16225 6.98716 6.18764 7.08984C6.2052 7.1908 6.22222 7.29185 6.23884 7.39297C6.26822 7.5614 6.29789 7.72976 6.32822 7.89802C6.46958 8.71489 6.46958 8.71489 6.32998 8.99926C6.17558 9.17035 6.04069 9.30217 5.80554 9.33587C5.50932 9.3497 5.30585 9.25051 5.04897 9.11206C5.00801 9.09091 4.96705 9.06977 4.92485 9.04799C4.7279 8.94581 4.53324 8.84004 4.33999 8.73104C4.30717 8.71282 4.27435 8.69459 4.24054 8.67581C4.17947 8.64166 4.11884 8.6067 4.05876 8.57084C3.92463 8.49552 3.85349 8.45737 3.70129 8.49639C3.57011 8.54934 3.44659 8.60782 3.32149 8.67381C3.25295 8.70974 3.25295 8.70974 3.18302 8.7464C3.11232 8.78383 3.11232 8.78383 3.04018 8.82202C2.85769 8.91805 2.67507 9.01382 2.49233 9.10937C2.45177 9.13082 2.41121 9.15228 2.36942 9.17438C2.33193 9.1938 2.29445 9.21323 2.25584 9.23324C2.22324 9.25031 2.19064 9.26737 2.15705 9.28496C1.96665 9.36413 1.78687 9.36015 1.59251 9.29719C1.41102 9.20978 1.30678 9.08077 1.19672 8.91551C1.10443 8.64459 1.16535 8.33791 1.2167 8.06268C1.22242 8.03035 1.22814 7.99803 1.23404 7.96473C1.25212 7.86282 1.27063 7.76099 1.28921 7.65917C1.30773 7.55673 1.32616 7.45428 1.34438 7.35178C1.35566 7.28838 1.36712 7.22501 1.37881 7.16168C1.42245 6.93332 1.42245 6.93332 1.41811 6.70312C1.35765 6.61249 1.35765 6.61249 1.27041 6.53292C1.2233 6.48656 1.2233 6.48656 1.17524 6.43926C1.14195 6.40758 1.10866 6.3759 1.07436 6.34326C1.0424 6.31191 1.01044 6.28056 0.977516 6.24826C0.796084 6.07156 0.609069 5.90313 0.417558 5.7375C0.329677 5.6592 0.250998 5.57614 0.174705 5.48657C0.150389 5.45837 0.126073 5.43018 0.10102 5.40113C-0.0535349 5.20626 -0.0222298 4.96397 0.000144422 4.72656C0.0936312 4.53266 0.211417 4.41885 0.386863 4.29687C0.523983 4.259 0.523983 4.259 0.678077 4.23611C0.71983 4.22963 0.71983 4.22963 0.762426 4.22301C0.851105 4.2094 0.939888 4.19673 1.02871 4.18408C1.08682 4.1753 1.14492 4.16646 1.20302 4.15756C1.23165 4.15323 1.26029 4.14891 1.28979 4.14445C1.34745 4.13574 1.40509 4.12693 1.46272 4.11803C1.60464 4.09665 1.74497 4.08007 1.88814 4.0693C2.16538 4.05351 2.16538 4.05351 2.40145 3.92601C2.46404 3.83107 2.50669 3.73915 2.54873 3.63354C2.56532 3.59753 2.58192 3.56152 2.59902 3.52442C2.63368 3.44876 2.66737 3.37265 2.70011 3.29615C2.76606 3.14263 2.83725 2.99185 2.90896 2.84096C2.94193 2.77127 2.97436 2.70132 3.00616 2.63109C3.10987 2.40479 3.21174 2.2154 3.42153 2.07055C3.64219 1.99291 3.85712 1.97682 4.08318 2.04621Z" fill="#7246A7"/>
<path d="M11.4271 0.10245C11.6222 0.241399 11.7083 0.467278 11.811 0.676653C11.8331 0.720587 11.8553 0.764521 11.8781 0.809787C11.9228 0.898582 11.9673 0.987523 12.0114 1.07661C12.0681 1.19085 12.1257 1.30455 12.1839 1.41803C12.2154 1.47973 12.2468 1.54144 12.2782 1.60317C12.2926 1.63137 12.307 1.65958 12.3219 1.68864C12.4179 1.88049 12.4179 1.88049 12.4179 1.97646C12.4446 1.97969 12.4714 1.98292 12.4989 1.98625C12.769 2.01903 13.0389 2.0529 13.3087 2.08755C13.398 2.09888 13.4874 2.10995 13.5768 2.12066C13.6919 2.13448 13.8068 2.14933 13.9218 2.16445C13.9558 2.16829 13.9899 2.17212 14.025 2.17608C14.3096 2.21533 14.5458 2.32548 14.7355 2.54579C14.8239 2.77464 14.8479 2.96949 14.7785 3.20644C14.6453 3.4384 14.483 3.61622 14.2811 3.79071C14.236 3.83006 14.236 3.83006 14.1899 3.87021C14.1257 3.92549 14.061 3.9803 13.996 4.03466C13.5657 4.37695 13.5657 4.37695 13.3291 4.84915C13.348 4.9972 13.3771 5.12837 13.4208 5.27037C13.4771 5.47043 13.5058 5.67653 13.5404 5.88124C13.5482 5.9221 13.556 5.96296 13.5641 6.00505C13.6904 6.68383 13.6904 6.68383 13.5512 6.95546C13.3996 7.15491 13.2555 7.26018 13.0087 7.30458C12.591 7.32784 12.1811 7.03895 11.8244 6.85073C11.7769 6.82594 11.7294 6.80115 11.6804 6.77561C11.3147 6.584 11.3147 6.584 11.1943 6.49893C11.0498 6.42737 10.9817 6.44385 10.828 6.48818C10.6922 6.54887 10.6922 6.54887 10.5548 6.62732C10.5295 6.64116 10.5041 6.655 10.4781 6.66925C10.3976 6.71328 10.3174 6.75779 10.2372 6.80239C9.24768 7.35073 9.24768 7.35073 8.89596 7.28746C8.68863 7.22618 8.57763 7.12517 8.44865 6.95546C8.23582 6.53219 8.44738 5.93129 8.52973 5.49051C8.54828 5.39047 8.56637 5.29035 8.58443 5.19022C8.59323 5.14456 8.59323 5.14456 8.6022 5.09798C8.63182 4.93331 8.65321 4.79873 8.59367 4.64052C8.50156 4.52403 8.50156 4.52403 8.38235 4.41091C8.35045 4.37922 8.35045 4.37922 8.31791 4.3469C8.24998 4.27965 8.18147 4.21303 8.11295 4.14638C8.06768 4.1016 8.02245 4.05679 7.97725 4.01193C7.72897 3.76639 7.72897 3.76639 7.46635 3.53651C7.28816 3.38782 7.21757 3.26128 7.18107 3.03456C7.16538 2.8378 7.20482 2.708 7.3046 2.53505C7.4719 2.34202 7.6179 2.23717 7.87051 2.20085C7.90535 2.19569 7.94019 2.19054 7.97609 2.18523C8.01333 2.18003 8.05058 2.17483 8.08895 2.16948C8.14678 2.16108 8.14678 2.16108 8.20578 2.15251C8.28713 2.14075 8.3685 2.12913 8.44989 2.11764C8.5746 2.10003 8.69924 2.08201 8.82387 2.06391C8.90295 2.05252 8.98203 2.04117 9.06112 2.02983C9.09845 2.02446 9.13578 2.01909 9.17424 2.01356C9.2263 2.00623 9.2263 2.00623 9.27941 1.99876C9.30991 1.99444 9.3404 1.99012 9.37181 1.98567C9.45304 1.97646 9.45304 1.97646 9.58195 1.97646C9.59854 1.9225 9.59854 1.9225 9.61546 1.86745C9.67248 1.70561 9.74303 1.55368 9.81911 1.40024C9.83374 1.37059 9.84837 1.34095 9.86344 1.31041C9.8943 1.24807 9.92525 1.18578 9.9563 1.12353C10.0034 1.0288 10.0499 0.933768 10.0963 0.838709C10.1265 0.777901 10.1568 0.717112 10.187 0.656344C10.2007 0.628185 10.2144 0.600026 10.2284 0.571014C10.3463 0.337477 10.4817 0.180873 10.7072 0.0482351C10.9656 -0.0280253 11.1831 -0.0125926 11.4271 0.10245Z" fill="#7246A7"/>
<path d="M18.4768 2.0625C18.787 2.21205 18.9298 2.47657 19.0706 2.77585C19.0855 2.80671 19.1003 2.83757 19.1155 2.86937C19.1625 2.96732 19.2091 3.06543 19.2556 3.16357C19.3025 3.26199 19.3495 3.36036 19.3966 3.45869C19.4258 3.5197 19.4549 3.58077 19.4838 3.6419C19.5432 3.76631 19.6033 3.88116 19.6799 3.99609C19.8091 4.02419 19.9323 4.04446 20.0631 4.06055C20.1014 4.06578 20.1397 4.07101 20.1791 4.07641C20.3018 4.09315 20.4246 4.10914 20.5474 4.125C20.6694 4.1409 20.7914 4.15698 20.9133 4.17359C20.9892 4.18391 21.0652 4.19384 21.1412 4.2033C21.3862 4.23648 21.6259 4.28017 21.8173 4.44877C22.015 4.71528 22.0432 4.91071 22.0002 5.24219C21.9364 5.38023 21.8486 5.47817 21.7424 5.58594C21.7155 5.61457 21.6886 5.64321 21.6609 5.67271C21.5249 5.81319 21.3831 5.9447 21.2349 6.07202C21.2072 6.09645 21.1795 6.12087 21.1509 6.14604C21.0771 6.21098 21.0021 6.27463 20.9267 6.33772C20.8825 6.37708 20.8384 6.41652 20.7944 6.45605C20.7532 6.49172 20.7119 6.52739 20.6694 6.56415C20.5375 6.77463 20.5834 6.93834 20.6252 7.17578C20.6333 7.22483 20.6414 7.27387 20.6498 7.32441C20.6864 7.53933 20.726 7.75367 20.7658 7.96802C20.9005 8.71732 20.9005 8.71732 20.7676 8.97241C20.6405 9.14753 20.5307 9.25548 20.3245 9.32422C19.8753 9.39273 19.5058 9.12153 19.1265 8.9122C19.0385 8.8637 18.9503 8.81553 18.8619 8.76768C18.7745 8.72034 18.6876 8.67221 18.6012 8.62325C18.5609 8.60144 18.5206 8.57963 18.4792 8.55716C18.4435 8.53729 18.4078 8.51743 18.371 8.49696C18.125 8.4245 17.8762 8.61294 17.6636 8.72836C17.5977 8.76337 17.5317 8.79833 17.4658 8.83327C17.3629 8.88797 17.2602 8.9429 17.1578 8.99849C17.0582 9.05241 16.9581 9.1053 16.8579 9.15805C16.8278 9.1747 16.7977 9.19135 16.7667 9.2085C16.5474 9.32252 16.3598 9.35459 16.1135 9.32422C15.8697 9.23981 15.7133 9.08239 15.5979 8.85156C15.5544 8.43329 15.6528 8.01958 15.7295 7.61084C15.7546 7.47675 15.7792 7.34258 15.8035 7.20834C15.8123 7.16289 15.8123 7.16289 15.8213 7.11651C15.8509 6.95269 15.8685 6.8188 15.8127 6.66015C15.7508 6.57854 15.7508 6.57854 15.6684 6.50842C15.6384 6.48094 15.6084 6.45347 15.5775 6.42516C15.5453 6.39636 15.513 6.36756 15.4797 6.33789C15.4131 6.27668 15.3465 6.21542 15.28 6.1541C15.2467 6.12364 15.2134 6.09318 15.1792 6.0618C15.0392 5.93299 14.9014 5.80215 14.7654 5.66919C14.7427 5.64775 14.72 5.62632 14.6966 5.60423C14.5045 5.41525 14.4101 5.23401 14.376 4.96557C14.4063 4.71849 14.4819 4.54152 14.6722 4.37811C14.8634 4.25853 15.0803 4.23981 15.2998 4.20825C15.3403 4.20191 15.3807 4.19557 15.4224 4.18903C15.4861 4.17919 15.4861 4.17919 15.5511 4.16914C15.6201 4.1576 15.6201 4.1576 15.6905 4.14582C15.8217 4.12928 15.9443 4.12216 16.076 4.11953C16.4859 4.10994 16.4859 4.10994 16.8361 3.9243C17.0038 3.70179 17.1023 3.44514 17.2039 3.18774C17.2521 3.07438 17.3012 2.96153 17.3511 2.84889C17.3816 2.77914 17.411 2.7089 17.4391 2.63813C17.642 2.14999 17.9666 2.01442 18.4768 2.0625Z" fill="#7246A7"/>
</g>
<defs>
<clipPath id="clip0_261_5261">
<rect width="22" height="22" fill="white"/>
</clipPath>
</defs>
</svg>
