<svg width="21" height="21" viewBox="0 0 21 21" fill="none" xmlns="http://www.w3.org/2000/svg">
<g clip-path="url(#clip0_261_5243)">
<path d="M19.9618 1.04077C20.1281 1.37349 19.9726 1.82016 19.899 2.16299C19.8865 2.22301 19.8739 2.28303 19.8614 2.34306C19.8276 2.5053 19.7932 2.66743 19.7587 2.82955C19.7224 3.00067 19.6865 3.17188 19.6506 3.34309C19.5824 3.66818 19.5138 3.99318 19.445 4.31815C19.3676 4.68353 19.2908 5.04901 19.214 5.41451C19.1199 5.86224 19.0256 6.30995 18.9311 6.75761C18.9244 6.78922 18.9178 6.82084 18.9109 6.85341C18.8784 7.00727 18.8458 7.16111 18.813 7.3149C18.7581 7.57275 18.7035 7.83061 18.6515 8.08908C18.6352 8.1702 18.6186 8.25128 18.602 8.33235C18.5819 8.4306 18.5623 8.52894 18.5431 8.62737C18.4812 8.92728 18.42 9.12168 18.1802 9.32336C17.9565 9.4395 17.799 9.45657 17.5618 9.38868C17.3709 9.31273 17.2477 9.19401 17.1073 9.04731C17.0823 9.02199 17.0573 8.99668 17.0315 8.97059C16.9525 8.89041 16.8742 8.80955 16.7959 8.72864C16.7421 8.67382 16.6883 8.61905 16.6344 8.56433C16.5031 8.43079 16.3725 8.29663 16.2422 8.16211C16.0082 8.35629 15.794 8.56486 15.5806 8.78123C15.5248 8.83757 15.4689 8.89392 15.4131 8.95026C15.3536 9.01032 15.2941 9.07043 15.2347 9.13054C15.1104 9.2562 14.9858 9.3816 14.8612 9.50695C14.8184 9.55 14.7756 9.59306 14.7328 9.63611C14.7114 9.65766 14.6899 9.6792 14.6679 9.7014C14.3782 9.99288 14.0886 10.2845 13.7997 10.5768C13.6042 10.7745 13.4084 10.9718 13.2121 11.1688C13.1085 11.2728 13.005 11.377 12.902 11.4817C12.7873 11.5983 12.6717 11.7141 12.5561 11.8298C12.5054 11.8817 12.5054 11.8817 12.4536 11.9347C12.275 12.1121 12.1478 12.2287 11.8945 12.2637C11.7536 12.2348 11.7046 12.1998 11.6125 12.0894C11.5516 11.9404 11.5535 11.8831 11.6074 11.7305C11.7833 11.5017 11.9927 11.2982 12.1968 11.0948C12.2398 11.0516 12.2398 11.0516 12.2838 11.0076C12.3778 10.9134 12.4719 10.8194 12.566 10.7254C12.6319 10.6595 12.6979 10.5935 12.7638 10.5275C12.9016 10.3896 13.0395 10.2519 13.1774 10.1141C13.3535 9.93821 13.5295 9.7621 13.7054 9.58595C13.8414 9.4498 13.9775 9.31375 14.1136 9.17774C14.1785 9.11286 14.2434 9.04797 14.3082 8.98303C14.3991 8.89207 14.4901 8.80124 14.5811 8.71044C14.6207 8.67077 14.6207 8.67077 14.661 8.63029C14.8177 8.47428 14.9793 8.32607 15.1469 8.18184C15.2276 8.11172 15.3033 8.0381 15.3776 7.96136C15.4036 7.9349 15.4296 7.90843 15.4563 7.88117C15.5093 7.82676 15.5621 7.77229 15.6149 7.71775C15.6407 7.69155 15.6664 7.66535 15.693 7.63836C15.7158 7.61484 15.7386 7.59132 15.7621 7.56709C15.8989 7.44726 16.016 7.41185 16.196 7.41101C16.2466 7.40998 16.2466 7.40998 16.2983 7.40893C16.5686 7.44624 16.7369 7.61442 16.9186 7.80114C16.9428 7.82555 16.9671 7.84995 16.992 7.8751C17.0688 7.95254 17.1451 8.0304 17.2214 8.10828C17.2736 8.1611 17.3259 8.21389 17.3781 8.26665C17.5057 8.39549 17.6328 8.52487 17.7598 8.6543C17.9338 7.88241 18.0992 7.10895 18.26 6.33422C18.2912 6.18403 18.3225 6.03386 18.3538 5.88369C18.4462 5.44039 18.5384 4.99707 18.6306 4.55373C18.7029 4.20626 18.7752 3.85881 18.8476 3.51139C18.8847 3.3337 18.9216 3.156 18.9585 2.97828C18.9867 2.84228 19.0151 2.7063 19.0435 2.57033C19.0585 2.4974 19.0585 2.4974 19.0739 2.42299C19.0881 2.35543 19.0881 2.35543 19.1025 2.28651C19.1106 2.24768 19.1186 2.20886 19.1269 2.16885C19.1586 2.03208 19.1968 1.89838 19.2363 1.76367C18.3354 1.91797 17.4344 2.07235 16.5335 2.2268C16.1152 2.29852 15.6969 2.37021 15.2786 2.44184C14.914 2.50427 14.5495 2.56674 14.185 2.62926C13.9919 2.66238 13.7988 2.69547 13.6057 2.72851C13.4241 2.75959 13.2424 2.79074 13.0608 2.82193C12.994 2.83337 12.9273 2.8448 12.8606 2.8562C12.7696 2.87176 12.6786 2.88739 12.5876 2.90304C12.5111 2.91614 12.5111 2.91614 12.4331 2.9295C12.3341 2.94771 12.2377 2.96792 12.1406 2.99414C12.2105 3.07121 12.2806 3.14811 12.3508 3.22485C12.3725 3.2486 12.3943 3.27234 12.4167 3.2968C12.538 3.42824 12.6613 3.55675 12.789 3.68195C12.8147 3.70711 12.8403 3.73228 12.8668 3.7582C12.9166 3.80667 12.9666 3.85487 13.0169 3.90275C13.2067 4.0875 13.3463 4.2693 13.3531 4.54504C13.3395 4.85199 13.1829 5.03786 12.9638 5.24141C12.9159 5.2852 12.868 5.32892 12.82 5.37259C12.4255 5.73659 12.0482 6.11758 11.6699 6.49828C11.5648 6.60398 11.4596 6.70955 11.3544 6.81514C11.1961 6.97396 11.0379 7.13281 10.8798 7.29172C10.5695 7.60353 10.2589 7.91508 9.94823 8.22653C9.89912 8.27577 9.85002 8.325 9.80091 8.37424C9.72655 8.44879 9.65218 8.52335 9.57782 8.59791C9.29871 8.87774 9.01963 9.15761 8.74058 9.4375C8.71512 9.46303 8.68967 9.48857 8.66344 9.51488C8.24955 9.93004 7.83596 10.3455 7.42247 10.761C6.99693 11.1887 6.571 11.6159 6.14472 12.0428C5.88225 12.3057 5.6201 12.5689 5.35835 12.8325C5.1793 13.0128 4.99987 13.1926 4.82014 13.3722C4.7165 13.4758 4.61304 13.5796 4.51002 13.6838C4.39836 13.7967 4.28591 13.9089 4.17338 14.0209C4.14096 14.054 4.10854 14.087 4.07514 14.121C3.90048 14.2935 3.77469 14.4053 3.52733 14.4375C3.30081 14.3536 3.30081 14.3536 3.24022 14.2324C3.21662 14.1003 3.20781 14.0315 3.24022 13.9043C3.3068 13.8134 3.3068 13.8134 3.39676 13.7176C3.4303 13.6818 3.46385 13.6459 3.49841 13.609C3.67154 13.4298 3.84566 13.2517 4.02223 13.0759C4.08384 13.0145 4.14521 12.9529 4.20657 12.8913C4.40314 12.6946 4.60141 12.5021 4.81355 12.3222C4.88011 12.2643 4.94229 12.2037 5.0039 12.1406C4.97897 12.1326 4.95404 12.1246 4.92836 12.1164C3.98834 11.811 3.22645 11.4292 2.50194 10.7461C2.47165 10.7189 2.44135 10.6917 2.41014 10.6637C1.60459 9.91114 1.03582 8.67067 0.977104 7.57553C0.949038 5.93519 1.30501 4.57546 2.46637 3.35816C3.45348 2.35291 4.78962 1.84728 6.18566 1.83289C7.56224 1.8376 8.85608 2.35532 9.84262 3.31858C10.5775 4.05912 10.9481 4.87169 11.2793 5.86523C11.6989 5.44565 12.1185 5.02606 12.5508 4.59375C12.4697 4.43162 12.3794 4.33223 12.2512 4.20987C12.2073 4.16705 12.1635 4.12422 12.1196 4.08138C12.0508 4.01462 11.9819 3.94801 11.9128 3.88163C11.322 3.31284 11.322 3.31284 11.3024 2.948C11.3285 2.71666 11.3914 2.59617 11.5536 2.43018C11.7685 2.26389 12.0725 2.2426 12.3343 2.19773C12.3644 2.19246 12.3945 2.1872 12.4255 2.18178C12.5254 2.16435 12.6254 2.14709 12.7254 2.12983C12.7974 2.1173 12.8695 2.10476 12.9415 2.09221C13.1366 2.05828 13.3317 2.02451 13.5268 1.99079C13.6488 1.96969 13.7709 1.94857 13.8929 1.92743C14.2753 1.86122 14.6577 1.79512 15.0401 1.72915C15.4807 1.65316 15.9211 1.57684 16.3616 1.50024C16.7027 1.44093 17.0438 1.38191 17.3851 1.32311C17.5885 1.28804 17.792 1.25284 17.9954 1.21734C18.1868 1.18395 18.3783 1.15092 18.5698 1.11816C18.6398 1.10613 18.7098 1.09396 18.7798 1.08165C19.7191 0.91662 19.7191 0.91662 19.9618 1.04077ZM2.73047 4.11082C2.25086 4.65226 1.93811 5.33186 1.76366 6.0293C1.75605 6.05918 1.74845 6.08907 1.74061 6.11986C1.47377 7.28672 1.76004 8.51237 2.3789 9.51562C2.48028 9.66029 2.59036 9.79328 2.70702 9.92578C2.74786 9.97543 2.74786 9.97543 2.78953 10.0261C3.46436 10.8219 4.50348 11.401 5.5498 11.4968C5.73905 11.4813 5.78938 11.4323 5.92254 11.2997C5.94289 11.2799 5.96323 11.26 5.98419 11.2395C6.05201 11.1729 6.11877 11.1054 6.18557 11.0378C6.23404 10.9898 6.28258 10.9418 6.33117 10.8939C6.46284 10.7637 6.59359 10.6326 6.72414 10.5013C6.83323 10.3918 6.94277 10.2827 7.05232 10.1736C7.31075 9.91621 7.56845 9.65812 7.82567 9.39955C8.09103 9.13283 8.35748 8.86724 8.62452 8.6022C8.85381 8.37457 9.08244 8.14631 9.31057 7.91752C9.4468 7.78089 9.58325 7.64451 9.7203 7.5087C9.84914 7.38097 9.97716 7.25246 10.1046 7.12331C10.1515 7.07607 10.1986 7.02911 10.2461 6.98245C10.3109 6.91863 10.3746 6.85389 10.4381 6.78881C10.474 6.75282 10.51 6.71683 10.547 6.67974C10.6725 6.48626 10.6378 6.3158 10.5972 6.09226C10.4418 5.51413 10.2395 4.95844 9.88476 4.4707C9.86091 4.43776 9.83706 4.40483 9.8125 4.37089C9.13869 3.48802 8.22603 2.86994 7.13671 2.625C7.09584 2.6158 7.05497 2.6066 7.01286 2.59712C5.39025 2.29301 3.83197 2.91989 2.73047 4.11082Z" fill="white"/>
<path d="M17.9365 12.6587C18.0267 12.7853 18.024 12.8581 18.0191 13.0126C18.0176 13.0638 18.0161 13.115 18.0145 13.1678C17.9998 13.439 17.9802 13.7095 17.9562 13.9801C17.951 14.0404 17.9458 14.1007 17.9405 14.161C17.9297 14.2861 17.9186 14.4112 17.9073 14.5362C17.893 14.6962 17.8794 14.8561 17.866 15.0161C17.8555 15.1401 17.8445 15.2641 17.8334 15.388C17.8281 15.447 17.8231 15.506 17.8182 15.5651C17.8114 15.6473 17.8038 15.7295 17.7962 15.8117C17.7921 15.8583 17.788 15.905 17.7838 15.953C17.7473 16.142 17.684 16.2501 17.5264 16.3601C17.3555 16.4181 17.2288 16.4345 17.0624 16.3652C16.9481 16.2747 16.8452 16.1788 16.7424 16.0754C16.6568 15.9826 16.6568 15.9826 16.5292 15.9961C16.4612 16.0465 16.4612 16.0465 16.3948 16.1173C16.3682 16.1441 16.3415 16.171 16.314 16.1987C16.285 16.2285 16.256 16.2584 16.2261 16.2891C16.1953 16.3203 16.1645 16.3514 16.1329 16.3835C16.0659 16.4513 15.9991 16.5193 15.9324 16.5873C15.8269 16.695 15.7209 16.8022 15.6148 16.9094C15.3131 17.2141 15.0121 17.5194 14.7117 17.8254C14.528 18.0123 14.3438 18.1987 14.1592 18.3846C14.0889 18.4557 14.0188 18.527 13.949 18.5985C13.8513 18.6986 13.7529 18.7978 13.6543 18.897C13.6256 18.9267 13.5969 18.9565 13.5673 18.9872C13.4347 19.119 13.3573 19.1879 13.1735 19.2378C13.0224 19.2361 12.9552 19.2065 12.8378 19.1133C12.7691 18.976 12.7632 18.85 12.7967 18.7031C12.8866 18.5655 13.0013 18.4566 13.1192 18.3427C13.1706 18.2912 13.1706 18.2912 13.2231 18.2385C13.3169 18.1447 13.4114 18.0517 13.5063 17.9589C13.6055 17.8617 13.7038 17.7635 13.8021 17.6654C13.9673 17.5009 14.1331 17.337 14.2993 17.1736C14.5338 16.9429 14.7673 16.7112 15.0005 16.4793C15.33 16.1519 15.66 15.8249 15.991 15.499C16.0237 15.4667 16.0563 15.4344 16.09 15.4011C16.1198 15.3718 16.1496 15.3426 16.1803 15.3124C16.2062 15.2869 16.2322 15.2613 16.2589 15.235C16.3902 15.1157 16.5093 15.1215 16.6798 15.1226C16.842 15.1433 16.9473 15.2248 17.0624 15.3398C17.1227 14.8826 17.1708 14.4252 17.211 13.9658C17.2166 13.9036 17.2221 13.8414 17.2277 13.7792C17.2411 13.6295 17.2543 13.4798 17.2674 13.3301C17.2196 13.3375 17.1718 13.345 17.1226 13.3527C16.6766 13.4213 16.2302 13.4821 15.7821 13.5351C15.7422 13.5398 15.7023 13.5446 15.6613 13.5496C15.6259 13.5537 15.5905 13.5579 15.5541 13.5622C15.456 13.5746 15.456 13.5746 15.3397 13.6172C15.354 13.6355 15.3684 13.6539 15.3831 13.6728C15.5814 13.9362 15.5814 13.9362 15.5858 14.1094C15.5225 14.4652 15.171 14.7357 14.9252 14.9819C14.8854 15.0219 14.8854 15.0219 14.8449 15.0627C14.7894 15.1184 14.7339 15.174 14.6783 15.2296C14.5933 15.3146 14.5086 15.4001 14.424 15.4855C14.3698 15.5398 14.3155 15.5941 14.2613 15.6484C14.2361 15.6739 14.2109 15.6994 14.185 15.7256C14.1613 15.7492 14.1376 15.7727 14.1132 15.797C14.0926 15.8177 14.072 15.8384 14.0507 15.8597C13.94 15.953 13.8446 15.9928 13.7016 16.014C13.576 15.9961 13.576 15.9961 13.4581 15.9115C13.371 15.791 13.371 15.791 13.3402 15.6552C13.4213 15.2562 13.9258 14.9035 14.2092 14.6221C14.2593 14.5722 14.3094 14.5223 14.3594 14.4724C14.481 14.3513 14.6027 14.2303 14.7245 14.1094C14.6855 14.0635 14.6465 14.0176 14.6075 13.9718C14.5858 13.9462 14.5641 13.9207 14.5417 13.8943C14.4907 13.8363 14.4363 13.7813 14.381 13.7274C14.2788 13.5585 14.2837 13.3992 14.3143 13.207C14.3897 13.0622 14.4392 13.0161 14.5922 12.9608C14.837 12.8958 15.0907 12.8718 15.3415 12.8401C15.3978 12.8329 15.4542 12.8257 15.5105 12.8184C15.6284 12.8033 15.7462 12.7884 15.8641 12.7735C16.0139 12.7547 16.1635 12.7354 16.3132 12.7159C16.4295 12.7008 16.5459 12.6861 16.6623 12.6714C16.7439 12.661 16.8255 12.6504 16.9071 12.6397C17.7595 12.5339 17.7595 12.5339 17.9365 12.6587Z" fill="white"/>
<path d="M6.05231 3.71191C6.197 3.73296 6.25711 3.75137 6.35736 3.85547C6.40604 4.0015 6.40235 4.11953 6.40094 4.27332C6.40057 4.3255 6.4002 4.37768 6.39982 4.43145C6.39934 4.47147 6.39887 4.5115 6.39838 4.55273C6.42485 4.55188 6.45133 4.55102 6.47861 4.55013C6.59883 4.54672 6.71904 4.54458 6.83929 4.54248C6.88096 4.54111 6.92262 4.53973 6.96555 4.53831C7.27405 4.53426 7.27405 4.53426 7.40919 4.62788C7.48202 4.74437 7.50299 4.8253 7.5058 4.96289C7.45741 5.07496 7.41731 5.1439 7.31672 5.21396C7.17548 5.26589 7.03688 5.26223 6.88832 5.26266C6.82269 5.26369 6.75705 5.26473 6.69141 5.26578C6.58845 5.26696 6.4855 5.26794 6.38253 5.26872C6.28281 5.26961 6.18311 5.27122 6.08339 5.27291C6.05288 5.27292 6.02236 5.27292 5.99093 5.27293C5.79602 5.2766 5.66232 5.31246 5.49603 5.41406C5.37725 5.54237 5.33512 5.67554 5.31403 5.84729C5.33427 6.00638 5.36601 6.10087 5.45502 6.23438C5.64573 6.38138 5.7895 6.44364 6.02811 6.44666C6.06843 6.44764 6.10874 6.44862 6.15028 6.44963C6.23423 6.45137 6.31818 6.45266 6.40214 6.45347C6.78438 6.46415 7.11734 6.55493 7.40198 6.82077C7.69897 7.15109 7.77157 7.4882 7.76471 7.92563C7.73633 8.26758 7.5971 8.54775 7.34174 8.77734C7.0401 9.00417 6.77277 9.07943 6.39838 9.06445C6.3998 9.10353 6.40123 9.1426 6.4027 9.18285C6.40381 9.2343 6.40492 9.28574 6.40607 9.33875C6.40821 9.41512 6.40821 9.41512 6.41039 9.49303C6.39764 9.64756 6.36873 9.72185 6.27533 9.84375C6.14697 9.90793 6.00418 9.91335 5.86517 9.88477C5.77321 9.82308 5.77321 9.82308 5.70111 9.7207C5.68919 9.60198 5.68545 9.50006 5.69086 9.38232C5.69197 9.33648 5.69197 9.33648 5.6931 9.28972C5.69503 9.21461 5.69797 9.13952 5.70111 9.06445C5.65564 9.06636 5.61017 9.06826 5.56332 9.07022C5.5033 9.07176 5.44327 9.07325 5.38324 9.07471C5.35331 9.07608 5.32339 9.07746 5.29256 9.07887C5.14788 9.0815 5.06244 9.07695 4.94296 8.99203C4.85946 8.86893 4.85734 8.79498 4.86462 8.65029C4.88957 8.52997 4.94689 8.47818 5.04486 8.4082C5.19613 8.35778 5.33672 8.36085 5.49427 8.35998C5.56004 8.35903 5.62581 8.35804 5.69158 8.35701C5.79499 8.35558 5.89839 8.35437 6.00181 8.35382C6.10182 8.35318 6.20177 8.35153 6.30177 8.34972C6.34773 8.34984 6.34773 8.34984 6.39462 8.34996C6.60646 8.34505 6.72672 8.29475 6.89056 8.16211C7.02026 8.0108 7.0351 7.87176 7.02803 7.67873C7.00517 7.5347 6.9448 7.44992 6.84955 7.3418C6.66449 7.20763 6.50501 7.17351 6.27998 7.17052C6.24146 7.16955 6.20294 7.16857 6.16326 7.16756C6.08326 7.16582 6.00326 7.16452 5.92325 7.16372C5.52912 7.15216 5.24262 7.03328 4.95418 6.76437C4.67874 6.46848 4.57127 6.14051 4.58119 5.73802C4.62164 5.35327 4.79206 5.04852 5.08588 4.79883C5.26762 4.68476 5.45018 4.59895 5.6601 4.55273C5.66068 4.5107 5.66126 4.46867 5.66186 4.42536C5.66378 4.36955 5.66576 4.31374 5.66779 4.25793C5.66802 4.23031 5.66826 4.20268 5.66851 4.17422C5.67546 4.01577 5.69761 3.94195 5.7966 3.81622C5.90619 3.73242 5.90619 3.73242 6.05231 3.71191Z" fill="white"/>
<path d="M6.0293 14.7656C6.13184 14.8271 6.13184 14.8271 6.19336 14.9297C6.22328 15.0929 6.23824 15.1925 6.14278 15.3314C6.1203 15.356 6.09782 15.3805 6.07467 15.4058C6.0485 15.4344 6.02233 15.463 5.99536 15.4925C5.82617 15.6699 5.65382 15.8441 5.48027 16.0172C5.43799 16.0596 5.39572 16.1019 5.35346 16.1443C5.23958 16.2583 5.12559 16.3722 5.01156 16.4861C4.89194 16.6056 4.77243 16.7253 4.65291 16.8448C4.45246 17.0454 4.25193 17.2458 4.05135 17.4462C3.81948 17.6778 3.58775 17.9096 3.3561 18.1415C3.15685 18.3409 2.95753 18.5403 2.75814 18.7396C2.63919 18.8585 2.52027 18.9774 2.40142 19.0964C2.28987 19.208 2.17823 19.3196 2.06651 19.4311C2.02552 19.472 1.98456 19.513 1.94364 19.554C1.88785 19.6099 1.83191 19.6657 1.77597 19.7214C1.7447 19.7527 1.71343 19.7839 1.68121 19.8161C1.5325 19.9554 1.43281 19.9932 1.22791 19.9876C1.14844 19.9746 1.14844 19.9746 1.04846 19.9054C0.975003 19.7967 0.94649 19.737 0.943359 19.6055C1.02079 19.4229 1.1137 19.2968 1.25349 19.1572C1.27213 19.1384 1.29077 19.1197 1.30997 19.1003C1.37203 19.038 1.43451 18.9761 1.497 18.9142C1.54177 18.8694 1.5865 18.8245 1.63122 18.7797C1.75237 18.6583 1.8739 18.5373 1.99551 18.4164C2.12273 18.2898 2.24962 18.1629 2.37655 18.036C2.5896 17.8231 2.80288 17.6104 3.01632 17.3979C3.2905 17.1249 3.56429 16.8516 3.83797 16.5781C4.07316 16.343 4.30852 16.1082 4.54391 15.8734C4.61965 15.7978 4.69537 15.7222 4.77108 15.6466C4.88985 15.528 5.00873 15.4096 5.1277 15.2912C5.17142 15.2477 5.2151 15.2041 5.25875 15.1605C5.31816 15.1011 5.37771 15.0419 5.43726 14.9828C5.4706 14.9495 5.50394 14.9163 5.53829 14.8821C5.6857 14.7445 5.83461 14.7391 6.0293 14.7656Z" fill="white"/>
<path d="M11.2382 12.3867C11.3356 12.4277 11.3356 12.4277 11.4022 12.5098C11.4743 12.7846 11.4743 12.7846 11.3798 12.9467C11.2625 13.117 11.1161 13.258 10.9696 13.403C10.9397 13.4329 10.9098 13.4628 10.8789 13.4936C10.8157 13.5567 10.7524 13.6197 10.689 13.6826C10.5928 13.778 10.497 13.8738 10.4012 13.9696C10.3395 14.0311 10.2777 14.0926 10.216 14.1541C10.1877 14.1823 10.1594 14.2106 10.1302 14.2397C10 14.3686 9.86869 14.4937 9.72929 14.6126C9.52545 14.7888 9.3389 14.9819 9.15081 15.1745C9.03851 15.2893 8.92555 15.4035 8.81272 15.5178C8.67 15.6625 8.52747 15.8074 8.38557 15.9529C8.27004 16.0713 8.15392 16.1891 8.03738 16.3065C7.99332 16.3511 7.94947 16.396 7.90587 16.441C7.84494 16.504 7.78327 16.5661 7.72139 16.628C7.68658 16.6635 7.65178 16.699 7.61592 16.7355C7.48061 16.8348 7.38503 16.8509 7.21864 16.8574C7.09774 16.8022 7.03231 16.7719 6.97254 16.6523C6.95016 16.5125 6.94073 16.4107 7.0246 16.2909C7.04774 16.2656 7.07088 16.2403 7.09471 16.2142C7.12092 16.1855 7.14713 16.1568 7.17413 16.1272C7.32123 15.9722 7.47097 15.8201 7.62227 15.6692C7.65739 15.634 7.6925 15.5988 7.72868 15.5625C7.82401 15.4671 7.91943 15.3717 8.0149 15.2763C8.1151 15.1763 8.21519 15.0761 8.3153 14.9759C8.4831 14.808 8.65097 14.6402 8.8189 14.4725C9.01308 14.2786 9.20711 14.0844 9.40107 13.8903C9.56795 13.7232 9.73491 13.5562 9.90194 13.3893C10.0016 13.2897 10.1012 13.1901 10.2007 13.0905C10.3113 12.9797 10.4221 12.8691 10.5329 12.7585C10.5659 12.7254 10.5989 12.6923 10.633 12.6582C10.663 12.6283 10.6931 12.5983 10.7241 12.5675C10.7502 12.5413 10.7764 12.5152 10.8034 12.4882C10.9393 12.3629 11.0583 12.3743 11.2382 12.3867Z" fill="white"/>
<path d="M6.39841 17.1856C6.52489 17.2614 6.58868 17.3111 6.64194 17.4496C6.64631 17.6287 6.58402 17.7342 6.46945 17.8701C6.43059 17.9104 6.3914 17.9504 6.35193 17.9901C6.33051 18.0122 6.30909 18.0342 6.28702 18.0569C6.21634 18.1294 6.1452 18.2014 6.07397 18.2733C6.02439 18.3236 5.97482 18.3738 5.92524 18.4241C5.82132 18.5293 5.71711 18.6343 5.61275 18.739C5.47932 18.8732 5.34707 19.0084 5.21506 19.1439C5.11311 19.2481 5.01034 19.3515 4.90733 19.4547C4.85821 19.5042 4.8094 19.554 4.76091 19.6041C4.33374 20.0445 4.33374 20.0445 4.09569 20.05C3.93747 20.0156 3.93747 20.0156 3.83237 19.9515C3.74638 19.8057 3.74273 19.7318 3.77341 19.5645C3.98073 19.2685 4.26995 19.0209 4.52531 18.7661C4.56977 18.7216 4.61422 18.6771 4.65867 18.6326C4.75116 18.5401 4.84372 18.4476 4.93633 18.3552C5.05513 18.2366 5.17374 18.1179 5.2923 17.9991C5.38374 17.9075 5.47528 17.816 5.56685 17.7245C5.61066 17.6807 5.65444 17.6369 5.69818 17.5931C5.75904 17.5321 5.82002 17.4713 5.88104 17.4105C5.91569 17.3759 5.95035 17.3413 5.98605 17.3056C6.12265 17.1774 6.21279 17.1674 6.39841 17.1856Z" fill="white"/>
<path d="M9.02326 11.7715C9.1258 11.833 9.1258 11.833 9.18732 11.9356C9.21223 12.0714 9.2219 12.1352 9.18732 12.2637C9.13591 12.3378 9.13591 12.3378 9.06715 12.4126C9.04103 12.4412 9.01491 12.4697 8.988 12.4991C8.71017 12.7925 8.42728 13.0807 8.14305 13.3678C8.06133 13.4505 7.98002 13.5335 7.89904 13.6169C7.7816 13.7378 7.663 13.8575 7.54429 13.9772C7.50831 14.0145 7.47233 14.0519 7.43525 14.0903C7.15136 14.3733 7.15136 14.3733 6.95452 14.4035C6.80842 14.3965 6.80842 14.3965 6.68793 14.335C6.57658 14.2 6.55931 14.1199 6.56232 13.9453C6.6611 13.7772 6.77489 13.6405 6.91249 13.5032C6.94903 13.4665 6.98557 13.4298 7.02322 13.392C7.06275 13.3528 7.10228 13.3136 7.14183 13.2743C7.18269 13.2335 7.22355 13.1927 7.26438 13.1518C7.34965 13.0666 7.43506 12.9816 7.52057 12.8966C7.6301 12.7878 7.73936 12.6787 7.84853 12.5695C7.93272 12.4853 8.01702 12.4012 8.10135 12.3172C8.14168 12.277 8.18199 12.2367 8.22227 12.1965C8.27851 12.1403 8.3349 12.0843 8.39129 12.0284C8.42331 11.9965 8.45533 11.9646 8.48832 11.9318C8.65736 11.7738 8.79662 11.7359 9.02326 11.7715Z" fill="white"/>
<path d="M12.4277 17.9238C12.5542 17.9997 12.618 18.0494 12.6712 18.1879C12.675 18.3432 12.6267 18.4547 12.5295 18.5754C12.5052 18.5996 12.4808 18.6238 12.4557 18.6487C12.4281 18.6765 12.4004 18.7042 12.372 18.7328C12.3421 18.7622 12.3123 18.7915 12.2816 18.8217C12.2356 18.8675 12.2356 18.8675 12.1887 18.9143C12.1241 18.9787 12.0592 19.043 11.9943 19.1071C11.8946 19.2055 11.7953 19.3043 11.6962 19.4033C11.6333 19.4658 11.5704 19.5283 11.5074 19.5907C11.4776 19.6204 11.4478 19.65 11.417 19.6806C11.3894 19.7078 11.3617 19.7351 11.3333 19.7632C11.3089 19.7872 11.2846 19.8113 11.2595 19.8361C11.1705 19.9169 11.1208 19.933 10.9998 19.9464C10.8354 19.9303 10.7754 19.8905 10.664 19.7695C10.6181 19.6346 10.6045 19.5631 10.6655 19.4327C10.7781 19.2729 10.9126 19.141 11.0513 19.0037C11.081 18.974 11.1106 18.9444 11.1412 18.9138C11.2037 18.8514 11.2664 18.7891 11.3291 18.7269C11.4254 18.6313 11.5213 18.5355 11.6172 18.4396C11.6781 18.3789 11.7389 18.3183 11.7998 18.2577C11.8286 18.229 11.8574 18.2002 11.8871 18.1706C11.9138 18.1442 11.9405 18.1177 11.968 18.0905C12.0032 18.0555 12.0032 18.0555 12.0392 18.0198C12.1627 17.9075 12.2649 17.9079 12.4277 17.9238Z" fill="white"/>
<path d="M13.3713 15.8731C13.4909 15.9695 13.4941 16.0351 13.5139 16.1881C13.5107 16.3764 13.4348 16.4639 13.3068 16.5952C13.2662 16.6342 13.2662 16.6342 13.2249 16.674C13.1972 16.7016 13.1696 16.7293 13.1411 16.7578C13.0827 16.8159 13.0238 16.8736 12.9646 16.931C12.8742 17.0187 12.7853 17.1078 12.6965 17.1972C12.6394 17.2536 12.5823 17.3099 12.525 17.3661C12.4985 17.3927 12.472 17.4193 12.4446 17.4466C12.2958 17.5893 12.1934 17.677 11.9768 17.6777C11.832 17.6119 11.7788 17.5653 11.6897 17.4316C11.6666 17.3214 11.6666 17.3214 11.6897 17.1856C11.8898 16.9021 12.1672 16.6594 12.4122 16.4144C12.4799 16.3466 12.5472 16.2786 12.6144 16.2106C12.6576 16.1673 12.7007 16.1241 12.7439 16.0809C12.7639 16.0606 12.7839 16.0403 12.8045 16.0194C12.9931 15.832 13.1123 15.8129 13.3713 15.8731Z" fill="white"/>
<path d="M13.9864 16.5703C14.0691 16.6944 14.1008 16.775 14.0966 16.9244C14.0374 17.1285 13.8698 17.2697 13.7207 17.4142C13.661 17.4725 13.6034 17.5324 13.5457 17.5927C13.2279 17.9081 13.2279 17.9081 13.0008 17.9139C12.8691 17.9017 12.8395 17.884 12.7329 17.7956C12.6604 17.6506 12.6395 17.5914 12.6739 17.4316C12.7549 17.3082 12.8574 17.2081 12.961 17.1035C13.0046 17.058 13.0481 17.0124 13.0916 16.9668C13.1386 16.9183 13.1856 16.8699 13.2328 16.8215C13.2553 16.7981 13.2779 16.7746 13.3011 16.7505C13.5253 16.5246 13.6715 16.4455 13.9864 16.5703Z" fill="white"/>
<path d="M11.7305 17.5137C11.8462 17.607 11.8532 17.676 11.8803 17.8226C11.8772 18.0466 11.7331 18.161 11.5805 18.3097C11.5253 18.3611 11.5253 18.3611 11.469 18.4134C11.4326 18.4488 11.3961 18.4841 11.3585 18.5206C11.0469 18.8201 11.0469 18.8201 10.8769 18.839C10.7101 18.8226 10.6496 18.7898 10.5411 18.6621C10.5078 18.496 10.499 18.4022 10.5885 18.2571C10.6641 18.1681 10.7447 18.0875 10.8282 18.0059C10.8697 17.9631 10.9111 17.9202 10.9525 17.8772C10.9964 17.832 11.0405 17.7869 11.0845 17.7418C11.1058 17.72 11.1271 17.6981 11.149 17.6756C11.3449 17.4795 11.4591 17.4507 11.7305 17.5137Z" fill="white"/>
</g>
<defs>
<clipPath id="clip0_261_5243">
<rect width="21" height="21" fill="white"/>
</clipPath>
</defs>
</svg>
