<svg width="24" height="18" viewBox="0 0 24 18" fill="none" xmlns="http://www.w3.org/2000/svg">
<path d="M4.57045 0.0328121C2.82201 0.173437 1.37826 1.10156 0.581385 2.59687C-0.899864 5.37656 0.595448 8.75625 3.67045 9.57656L4.05482 9.67969H12.0001H19.9454L20.3251 9.57656C21.1595 9.35625 21.8579 8.97187 22.4626 8.4C22.9033 7.98281 23.2126 7.56562 23.4845 7.00781C24.4314 5.09062 24.0283 2.85 22.472 1.35469C21.6751 0.595312 20.7001 0.154687 19.5564 0.046875C19.1064 0.00468731 5.08607 -0.00937557 4.57045 0.0328121ZM20.1611 0.9C21.6564 1.3125 22.7345 2.4 23.1376 3.91875C23.2033 4.1625 23.222 4.40156 23.222 4.89844C23.2173 5.475 23.2033 5.60625 23.0908 5.97656C22.6736 7.35 21.7126 8.33906 20.3439 8.79375L19.9454 8.92969H12.0001H4.05482L3.60951 8.77969C2.49857 8.4 1.65482 7.66406 1.16732 6.63281C0.848573 5.95781 0.77826 5.63437 0.77826 4.875C0.77826 4.35938 0.79701 4.16719 0.881385 3.84375C1.3267 2.19844 2.7142 1.00312 4.40639 0.796875C4.57514 0.778125 8.08607 0.764062 12.2111 0.768749L19.7111 0.773438L20.1611 0.9Z" fill="#7246A7"/>
<path d="M4.82827 2.97656C3.63765 3.30937 3.04234 4.63593 3.58609 5.74687C3.94702 6.47812 4.8564 6.95156 5.63921 6.80625C6.93296 6.5625 7.64546 5.22656 7.1064 4.05C6.72671 3.22031 5.69546 2.7375 4.82827 2.97656ZM5.69077 3.72187C6.10327 3.84843 6.42202 4.2 6.52515 4.65C6.71265 5.48906 5.84546 6.27187 5.0064 6.02812C4.7064 5.94375 4.39702 5.69062 4.25171 5.41875C4.11577 5.16562 4.1064 4.60312 4.23765 4.35937C4.53296 3.79218 5.10015 3.54375 5.69077 3.72187Z" fill="#7246A7"/>
<path d="M8.12813 3.01406L7.99219 3.13125V4.875V6.61875L8.12813 6.73593C8.23594 6.825 8.29688 6.84843 8.40938 6.825C8.68594 6.77343 8.71875 6.675 8.71875 5.925V5.25H8.96719H9.21094L9.57188 5.97656C9.80156 6.43125 9.97969 6.72656 10.05 6.77812C10.2844 6.92812 10.5938 6.75 10.5938 6.45937C10.5938 6.38437 10.4578 6.05625 10.2938 5.72343L9.98906 5.11875L10.1813 4.96875C10.8141 4.45781 10.6969 3.42656 9.96094 3.03281C9.79688 2.94375 9.68438 2.92968 9.01875 2.91562C8.27344 2.89687 8.26406 2.90156 8.12813 3.01406ZM9.69844 3.77812C9.81563 3.87187 9.84375 3.9375 9.84375 4.07812C9.84375 4.21875 9.81563 4.28437 9.69844 4.37812C9.56719 4.49062 9.52031 4.5 9.13594 4.5H8.71875V4.07812V3.65625H9.13594C9.52031 3.65625 9.56719 3.66562 9.69844 3.77812Z" fill="#7246A7"/>
<path d="M11.6203 3.04219L11.4844 3.17812V4.875V6.57187L11.6203 6.70781C11.7516 6.83437 11.7797 6.84375 12.1547 6.84375C12.3703 6.84375 12.6656 6.82031 12.8016 6.79688C13.4016 6.68437 13.9125 6.29531 14.1891 5.73281C14.3391 5.42812 14.3625 5.32969 14.3812 4.96875C14.4141 4.33594 14.2125 3.84844 13.7578 3.42656C13.3641 3.06562 12.8906 2.90625 12.1969 2.90625C11.775 2.90625 11.7516 2.91094 11.6203 3.04219ZM13.0266 3.825C13.4344 4.04531 13.6406 4.40156 13.6406 4.875C13.6406 5.22187 13.5516 5.45156 13.3219 5.68594C13.0875 5.92969 12.8531 6.04219 12.5156 6.07969L12.2344 6.10781V4.875V3.64219L12.5109 3.67031C12.6891 3.68437 12.8766 3.74062 13.0266 3.825Z" fill="#7246A7"/>
<path d="M15.2109 3.02344L15.0938 3.13594V4.84687C15.0938 5.78437 15.1078 6.59062 15.1219 6.63281C15.1922 6.80625 15.3844 6.84375 16.2375 6.84375C17.0203 6.84375 17.0625 6.83906 17.175 6.73594C17.3484 6.58125 17.3578 6.34219 17.1938 6.1875C17.1 6.10312 17.0297 6.09375 16.4672 6.09375H15.8438V5.67188V5.25H16.4484C17.0203 5.25 17.0672 5.24531 17.1844 5.14219C17.3578 4.9875 17.3578 4.7625 17.1844 4.60781C17.0672 4.50469 17.0203 4.5 16.4484 4.5H15.8438V4.07812V3.65625H16.4672C17.0719 3.65625 17.0953 3.65156 17.2031 3.53906C17.3578 3.375 17.3484 3.15937 17.1844 3.01406C17.0625 2.91094 17.0297 2.90625 16.1906 2.90625C15.3328 2.90625 15.3234 2.90625 15.2109 3.02344Z" fill="#7246A7"/>
<path d="M18.2109 2.96249C18 3.07499 18 3.07499 18 4.8328C18 5.98124 18.0188 6.54843 18.0516 6.62812C18.1266 6.79218 18.3375 6.87187 18.5109 6.80155C18.7125 6.71249 18.75 6.57655 18.75 5.8828V5.24999H18.9844H19.2141L19.5938 5.9953C19.9031 6.60937 19.9922 6.74999 20.1047 6.79687C20.1797 6.82499 20.2875 6.83905 20.3438 6.8203C20.4844 6.77343 20.625 6.60937 20.625 6.4828C20.625 6.42187 20.4891 6.09843 20.3203 5.76093L20.0109 5.14687L20.2406 4.92187C20.4891 4.67812 20.625 4.37812 20.625 4.07812C20.625 3.5953 20.2734 3.11249 19.8234 2.98124C19.5281 2.89218 18.3609 2.87812 18.2109 2.96249ZM19.7391 3.79218C19.8328 3.88593 19.875 3.97499 19.875 4.07812C19.875 4.18124 19.8328 4.2703 19.7391 4.36405C19.6078 4.4953 19.5844 4.49999 19.1766 4.49999H18.75V4.07812V3.65624H19.1766C19.5844 3.65624 19.6078 3.66093 19.7391 3.79218Z" fill="#7246A7"/>
<path d="M16.425 11.1281C16.2375 11.2125 16.2188 11.2687 16.2188 11.7703C16.2188 12.1547 16.2281 12.2016 16.3359 12.3047C16.4578 12.4312 16.6641 12.4547 16.7859 12.3609C16.9266 12.2531 16.9688 12.0984 16.9688 11.7234C16.9688 11.4 16.9547 11.3344 16.8656 11.2312C16.725 11.0812 16.6031 11.0531 16.425 11.1281Z" fill="#7246A7"/>
<path d="M14.5078 11.9156C14.3672 12 14.3016 12.1031 14.2969 12.2531C14.2969 12.4547 14.8734 13.0312 15.0797 13.0312C15.2672 13.0312 15.4125 12.9047 15.45 12.7125C15.4781 12.5672 15.4594 12.5344 15.1313 12.2109C14.7797 11.8594 14.6859 11.8125 14.5078 11.9156Z" fill="#7246A7"/>
<path d="M15.9846 13.2281C15.7174 13.3687 15.6002 13.5328 15.5768 13.8141C15.5674 13.9359 15.619 14.6484 15.6987 15.3937C15.8487 16.8656 15.8533 16.8797 16.1721 17.0953C16.3408 17.2125 16.6362 17.2359 16.8518 17.1562C16.9174 17.1328 17.0908 17.0016 17.2315 16.8656L17.4893 16.6219L18.1315 17.2594C18.483 17.6109 18.8252 17.9109 18.8862 17.9297C19.0643 17.9859 19.3408 17.9672 19.4862 17.8922C19.6643 17.7984 20.283 17.1516 20.344 16.9969C20.4143 16.8094 20.4002 16.5656 20.3158 16.3922C20.2737 16.3078 19.9737 15.975 19.6502 15.6422L19.0596 15.0469L19.2752 14.8219C19.3924 14.7 19.5237 14.5359 19.5658 14.4516C19.7393 14.1 19.5846 13.6687 19.2096 13.4719C19.1158 13.425 16.5471 13.125 16.2237 13.125C16.2049 13.125 16.0971 13.1719 15.9846 13.2281ZM17.6721 14.0203C18.3049 14.0766 18.8299 14.1328 18.8393 14.1422C18.8533 14.1516 18.6987 14.325 18.5018 14.5266C17.9768 15.0656 17.9627 15.0281 18.8908 15.9609L19.6408 16.7156L19.383 16.9687L19.1252 17.2266L18.3752 16.4766C17.4424 15.5437 17.4752 15.5531 16.9221 16.1016C16.7158 16.3078 16.5471 16.4437 16.5471 16.4062C16.5471 16.3687 16.4955 15.8062 16.4299 15.1641C16.2893 13.7391 16.2893 13.8609 16.4205 13.8891C16.4768 13.9031 17.0393 13.9594 17.6721 14.0203Z" fill="#7246A7"/>
<path d="M13.7109 13.8375C13.4718 13.9734 13.4296 14.2312 13.6171 14.4141C13.7203 14.5219 13.7624 14.5312 14.1656 14.5312C14.6343 14.5266 14.7281 14.4937 14.8078 14.2828C14.8687 14.1281 14.8124 13.9594 14.6624 13.8562C14.5359 13.7672 13.8562 13.7531 13.7109 13.8375Z" fill="#7246A7"/>
</svg>
